<svg id="Capa_1" enable-background="new 0 0 512 512" height="512" viewBox="0 0 512 512" width="512" xmlns="http://www.w3.org/2000/svg"><g><path d="m498.968 211.258-17.158-61.828c-4.875-17.568-21.014-29.838-39.246-29.838h-4.4l-5.844-20.81c-2.388-8.505-10.225-14.445-19.059-14.445h-111.102c-8.833 0-16.67 5.939-19.058 14.444l-5.844 20.811h-56.953c-4.142 0-7.5 3.358-7.5 7.5s3.358 7.5 7.5 7.5h222.261c11.518 0 21.712 7.751 24.792 18.849l1.045 3.764h-453.402v-9.375c0-7.3 5.939-13.238 13.238-13.238h162.066c4.142 0 7.5-3.358 7.5-7.5s-3.358-7.5-7.5-7.5h-162.066c-15.57 0-28.238 12.668-28.238 28.238v216.954c0 7.84 6.379 14.219 14.219 14.219h47.723c3.699 27.431 27.363 48.66 55.933 48.66s52.235-21.228 55.933-48.66h149.878c3.698 27.431 27.363 48.66 55.933 48.66s52.235-21.228 55.933-48.66h56.694c10.892 0 19.753-8.861 19.753-19.753v-52.295c.001-32.339-4.384-64.536-13.031-95.697zm-201.426-108.422c.579-2.06 2.477-3.499 4.617-3.499h111.104c2.14 0 4.038 1.438 4.617 3.499l4.705 16.755h-129.748zm123.887 230.973c-6.178-6.775-13.995-12.041-22.819-15.186v-47.596c1.317.606 98.39 60.293 98.39 60.293v2.314h-73.971c-.549 0-1.084.063-1.6.175zm-83.454-.175h-117.671c-4.142 0-7.5 3.358-7.5 7.5s3.358 7.5 7.5 7.5h107.777c-2.164 4.807-3.666 9.966-4.394 15.37h-149.878c-.729-5.403-2.23-10.563-4.394-15.37h20.889c4.142 0 7.5-3.358 7.5-7.5s-3.358-7.5-7.5-7.5h-29.098c-.527 0-1.04.055-1.536.159-10.335-11.326-25.244-18.449-41.795-18.449-16.472 0-31.317 7.058-41.646 18.29h-61.229v-65.932h368.512c.033 0 .066.003.099.003v47.795c-1.32-.092-2.647-.156-3.99-.156-16.473 0-31.317 7.057-41.646 18.29zm80.615-68.244-8.261-5.09c-3.686-2.271-7.625-4.046-11.719-5.312v-51.466h.439c10.775 0 19.541 8.766 19.541 19.541zm-34.98-12.686c-.033 0-.066-.002-.099-.002h-56.589v-80.497h56.688zm-71.687-.002h-64.108v-80.497h64.108zm-79.109 0h-64.108v-80.497h64.108zm-79.108 0h-64.108v-80.497h64.108zm-79.108 0h-59.598v-80.497h59.598zm422.402 54.253v6.746l-26.106-16.085c1.851-18.085 9.428-35.982 20.935-49.926 3.431 19.549 5.171 39.378 5.171 59.265zm-12.486-91.686c1.319 4.755 2.523 9.537 3.635 14.339-16.061 15.414-27.333 37.015-31.221 59.403l-23.338-14.38v-51.569c0-19.046-15.495-34.541-34.541-34.541h-.439v-16.316h73.953zm-469.514 133.365h51.336c-2.164 4.807-3.666 9.966-4.394 15.37h-46.942zm102.876 64.029c-22.857 0-41.452-18.464-41.452-41.16 0-22.695 18.595-41.16 41.452-41.16 22.856 0 41.452 18.464 41.452 41.16-.001 22.695-18.596 41.16-41.452 41.16zm261.744 0c-22.856 0-41.452-18.464-41.452-41.16 0-22.695 18.595-41.16 41.452-41.16s41.452 18.464 41.452 41.16c0 22.695-18.595 41.16-41.452 41.16zm117.38-53.413c0 2.621-2.132 4.753-4.753 4.753h-56.694c-.729-5.403-2.23-10.563-4.394-15.37h65.841z"/><path d="m379.62 346.931c-13.605 0-24.674 11.023-24.674 24.572s11.069 24.572 24.674 24.572c13.606 0 24.675-11.023 24.675-24.572s-11.069-24.572-24.675-24.572zm0 34.144c-5.335 0-9.674-4.294-9.674-9.572s4.34-9.572 9.674-9.572 9.675 4.294 9.675 9.572-4.34 9.572-9.675 9.572z"/><path d="m117.876 346.931c-13.606 0-24.675 11.023-24.675 24.572s11.069 24.572 24.675 24.572c13.605 0 24.674-11.023 24.674-24.572s-11.069-24.572-24.674-24.572zm0 34.144c-5.335 0-9.675-4.294-9.675-9.572s4.34-9.572 9.675-9.572c5.334 0 9.674 4.294 9.674 9.572s-4.34 9.572-9.674 9.572z"/></g></svg>