<?xml version="1.0" encoding="iso-8859-1"?>
<!-- Generator: Adobe Illustrator 19.0.0, SVG Export Plug-In . SVG Version: 6.00 Build 0)  -->
<svg version="1.1" id="Capa_1" xmlns="http://www.w3.org/2000/svg" xmlns:xlink="http://www.w3.org/1999/xlink" x="0px" y="0px"
	 viewBox="0 0 496 496" style="enable-background:new 0 0 496 496;" xml:space="preserve">
<g>
	<g>
		<g>
			<path d="M488,320.008h-96v-8c-0.123-110.406-89.594-199.877-200-200H8c-4.418,0-8,3.582-8,8v208c0,4.418,3.582,8,8,8h184.64
				c4.391,30.574,32.736,51.8,63.311,47.409c24.574-3.529,43.88-22.835,47.409-47.409H488c4.418,0,8-3.582,8-8
				S492.418,320.008,488,320.008z M120,312.008H48v-144h72V312.008z M248,368.008c-22.091,0-40-17.909-40-40
				c0-22.091,17.909-40,40-40c22.091,0,40,17.909,40,40C287.974,350.088,270.08,367.981,248,368.008z M376,320.008h-72.64
				c-4.391-30.575-32.736-51.8-63.311-47.409c-24.574,3.529-43.88,22.835-47.409,47.409H136v-160c0-4.418-3.582-8-8-8H40
				c-4.418,0-8,3.582-8,8v160H16v-192h176c101.573,0.115,183.885,82.427,184,184V320.008z"/>
			<path d="M248,304.008c-13.255,0-24,10.745-24,24s10.745,24,24,24s24-10.745,24-24S261.255,304.008,248,304.008z M248,336.008
				c-4.418,0-8-3.582-8-8s3.582-8,8-8s8,3.582,8,8S252.418,336.008,248,336.008z"/>
			<path d="M104,272.008c4.418,0,8-3.582,8-8v-24c0-4.418-3.582-8-8-8s-8,3.582-8,8v24C96,268.426,99.582,272.008,104,272.008z"/>
			<path d="M216,152.008h-56c-4.418,0-8,3.582-8,8v80c0,4.418,3.582,8,8,8h112c4.418,0,8-3.582,8-8v-24
				C279.96,180.678,251.33,152.047,216,152.008z M264,232.008h-96v-64h48c26.499,0.026,47.974,21.501,48,48V232.008z"/>
			<path d="M192,264.008h-32c-4.418,0-8,3.582-8,8s3.582,8,8,8h32c4.418,0,8-3.582,8-8S196.418,264.008,192,264.008z"/>
			<path d="M288,264.008c0,4.418,3.582,8,8,8h56c4.418,0,8-3.582,8-8s-3.582-8-8-8h-56C291.582,256.008,288,259.589,288,264.008z"/>
		</g>
	</g>
</g>
<g>
</g>
<g>
</g>
<g>
</g>
<g>
</g>
<g>
</g>
<g>
</g>
<g>
</g>
<g>
</g>
<g>
</g>
<g>
</g>
<g>
</g>
<g>
</g>
<g>
</g>
<g>
</g>
<g>
</g>
</svg>
