<svg id="Icons" height="512" viewBox="0 0 74 74" width="512" xmlns="http://www.w3.org/2000/svg"><path d="m69.161 55.35h-6.408a1 1 0 0 1 0-2h6.408a.844.844 0 0 0 .839-.85v-9.46a.839.839 0 0 0 -.169-.511l-9.2-11.99a.843.843 0 0 0 -.669-.335h-12.902a.845.845 0 0 0 -.839.848v22.3h7.247a1 1 0 0 1 0 2h-8.247a1 1 0 0 1 -1-1v-23.3a2.847 2.847 0 0 1 2.839-2.848h12.9a2.854 2.854 0 0 1 2.258 1.121l9.2 11.985a2.852 2.852 0 0 1 .582 1.732v9.458a2.846 2.846 0 0 1 -2.839 2.85z"/><path d="m66.114 43.315h-17.079a1 1 0 0 1 -1-1v-9.291a1 1 0 0 1 1-1h9.951a1 1 0 0 1 .794.392l7.128 9.291a1 1 0 0 1 -.794 1.608zm-16.079-2h14.052l-5.594-7.291h-8.458z"/><path d="m45.221 55.35h-19.536a1 1 0 1 1 0-2h18.536v-5.364h-35.665v5.364h7.844a1 1 0 0 1 0 2h-8.844a1 1 0 0 1 -1-1v-7.364a1 1 0 0 1 1-1h37.665a1 1 0 0 1 1 1v7.364a1 1 0 0 1 -1 1z"/><path d="m53.715 46.535h-2.444a1 1 0 0 1 0-2h2.444a1 1 0 0 1 0 2z"/><path d="m58.111 59.992a5.644 5.644 0 1 1 5.644-5.643 5.65 5.65 0 0 1 -5.644 5.643zm0-9.287a3.644 3.644 0 1 0 3.644 3.644 3.648 3.648 0 0 0 -3.644-3.644z"/><path d="m21.04 59.992a5.644 5.644 0 1 1 5.643-5.643 5.65 5.65 0 0 1 -5.643 5.643zm0-9.287a3.644 3.644 0 1 0 3.643 3.644 3.647 3.647 0 0 0 -3.643-3.644z"/><path d="m36.97 47.986h-30.827a4.147 4.147 0 0 1 -4.143-4.143v-20.343a1 1 0 0 1 1-1h34.638l.417-1.982a1 1 0 0 1 .653-.74l8.882-3.054a1 1 0 0 1 1.283.659l1.12 3.749a1 1 0 0 1 -.639 1.234l-5.6 1.883-2.677 20.141a4.156 4.156 0 0 1 -4.107 3.596zm-32.97-23.486v19.343a2.145 2.145 0 0 0 2.143 2.143h30.827a2.148 2.148 0 0 0 2.124-1.86l2.761-20.756a1 1 0 0 1 .672-.816l5.273-1.774-.545-1.824-7.355 2.531-.467 2.221a1 1 0 0 1 -.978.794z"/><path d="m34.688 24.5h-14.04a1 1 0 0 1 -.562-1.827l2.928-1.989-1.081-1.654a1 1 0 0 1 -.118-.842l.627-2.032a1 1 0 0 1 .807-.694l9.581-1.445a1 1 0 0 1 1.057.57l2.78 6.024a1 1 0 0 1 .009.817l-1.076 2.472a1 1 0 0 1 -.912.6zm-10.788-2h10.131l.632-1.457-2.277-4.937-8.218 1.24-.3.983 1.361 2.084a1 1 0 0 1 -.275 1.374z"/><path d="m20.648 24.5h-14.454a1 1 0 0 1 -.941-1.337l1.415-3.946a1 1 0 0 1 1.189-.632l3.854.986 3.952-4.218a1 1 0 0 1 1.087-.25l6.378 2.446a1 1 0 0 1 .48.387l1.617 2.477a1 1 0 0 1 -.275 1.374l-3.74 2.54a1 1 0 0 1 -.562.173zm-13.033-2h12.725l2.674-1.816-.9-1.383-5.447-2.09-3.9 4.159a.993.993 0 0 1 -.978.285l-3.546-.905z"/></svg>